<?xml version="1.0" encoding="UTF-8"?>
<svg data-bbox="0 -0.127 328.457 332.127" height="332" width="324" xmlns="http://www.w3.org/2000/svg" data-type="ugc">
    <g>
        <path fill="#C7212E" d="M0 0h324v332H0V0Z"/>
        <path fill="#FDFDFD" d="m24.085 1.86 3.052-.017 3.33-.004 3.556-.015c3.253-.013 6.506-.022 9.759-.028 2.791-.007 5.582-.017 8.373-.027 9.193-.033 18.386-.055 27.58-.073l7.182-.015a46759.78 46759.78 0 0 1 54.958-.086l2.593-.003c13.864-.017 27.727-.058 41.591-.11 14.24-.051 28.481-.08 42.722-.087 7.993-.005 15.985-.02 23.978-.06a3021.59 3021.59 0 0 1 20.42-.036c3.471.006 6.941.002 10.412-.028 3.77-.028 7.537-.018 11.306 0l3.298-.05C305.786 1.314 311.027 3.256 317 8c22.437 24.708 5 66.625 5 100H2C2 13.19 2 13.19 7.965 6.94l1.972-1.379 1.965-1.433c3.861-2.078 7.864-2.255 12.183-2.269Z"/>
        <path fill="#808184" d="M0 0h324v332H0V0Zm6 9c-4.6 6.215-4.565 12.68-4.501 20.146l-.017 3.666c-.011 3.342-.005 6.682.01 10.024.01 3.61-.001 7.22-.01 10.83-.014 7.066-.006 14.131.009 21.197.016 8.232.013 16.464.01 24.696-.006 14.69.008 29.38.032 44.07.024 14.247.031 28.495.021 42.742a27968.627 27968.627 0 0 0 .006 51.536l.002 2.468c.005 5.735.003 11.47-.001 17.206-.005 6.991 0 13.982.02 20.973.01 3.566.015 7.131.008 10.697-.009 3.868.006 7.736.023 11.603l-.018 3.403c.056 6.924.473 13.218 5.09 18.766l1.753 1.352 1.747 1.398c3.695 2.496 6.35 3.477 10.846 3.487l3.092.021 3.39-.007 3.607.016c3.305.012 6.61.016 9.915.015 3.563.002 7.127.015 10.691.027 7.794.022 15.587.03 23.38.035 4.867.004 9.734.01 14.6.017 13.475.02 26.95.036 40.425.04h2.614l5.244.001h2.63l2.633.001c14.079.004 28.157.03 42.235.068 14.456.038 28.911.057 43.366.058 8.116 0 16.232.009 24.347.038 6.911.024 13.822.032 20.733.017 3.525-.008 7.05-.007 10.575.016 3.824.024 7.648.01 11.472-.008l3.364.04c6.843-.075 11.364-1.208 16.657-5.655 6.533-6.705 6.292-14.066 6.267-22.905l.014-3.661c.01-3.346.012-6.692.01-10.038 0-3.611.01-7.223.02-10.834.016-7.073.022-14.145.023-21.218.001-5.75.005-11.498.012-17.248.017-16.304.026-32.607.025-48.911v-5.329c-.001-14.26.018-28.519.046-42.778.029-14.645.042-29.29.04-43.936 0-8.22.006-16.44.027-24.662.018-6.998.023-13.997.009-20.995-.006-3.57-.007-7.14.01-10.709.02-3.872.007-7.745-.009-11.617l.032-3.407c-.06-6.707-.943-11.037-4.526-16.752-2.183-2.1-2.183-2.1-4.625-3.438l-2.352-1.433c-3.234-1.804-5.04-2.255-8.75-2.258l-3.041-.01-3.366.005-3.556-.007a4982.31 4982.31 0 0 0-9.803-.004c-3.52 0-7.04-.006-10.56-.01-6.901-.009-13.803-.011-20.704-.012-5.61 0-11.218-.003-16.828-.006-15.895-.009-31.79-.013-47.685-.012h-5.2c-13.912 0-27.824-.01-41.735-.023-14.277-.015-28.554-.022-42.83-.02-8.019 0-16.037-.003-24.055-.014-6.829-.01-13.657-.011-20.485-.005-3.484.004-6.968.004-10.453-.005-3.777-.008-7.553-.003-11.33.005l-3.339-.016C18.819 1.776 12.356 3.158 6 9Z"/>
        <path fill="#FCF3F3" d="M35 222c26.517 0 26.517 0 33.176 5.941 5.538 6.027 6.182 10.673 6.101 18.758-.522 6.214-2.744 9.768-7.09 14.113C56.014 268.483 50.567 266 35 266v-44Z"/>
        <path fill="#FCF3F3" d="m252 222 11.5-.25 3.576-.11c7.641-.08 13.257.853 18.893 6.243 2.16 4.436 1.72 9.336 1.031 14.117-1.352 2.86-2.504 3.901-5 6-2.172.645-2.172.645-4 1l1.01 1.453c1.499 2.16 2.995 4.322 4.49 6.484l1.59 2.288 1.504 2.177 1.396 2.016C289 265 289 265 289 266c-3.573.79-6.457 1.01-10 0-4.07-4.333-7.119-9.357-9-15h-10v15h-8v-44Z"/>
        <path fill="#FDF6F6" d="M140 222h7c3.95 7.59 7.343 15.352 10.625 23.25.949 2.277 1.9 4.553 2.852 6.828l1.252 3.013c.91 2.082 1.895 4.13 2.929 6.154C166 264 166 264 166 266h-8l-5-10-20-1-3 9-1 2h-8c.806-3.805 2.238-7.343 3.688-10.938l.806-2.005C129.804 242.455 134.817 232.2 140 222Z"/>
        <path fill="#876E73" d="M16 329h292l-1 3H17l-1-3Z"/>
        <path fill="#FCF2F2" d="M211 222h32v8h-24v10h21v7h-21v12h25v7h-33v-44Z"/>
        <path fill="#FEFAFA" d="M84 223h31v6H91v11h22v7H91v12h25v7H84v-43Z"/>
        <path fill="#808285" d="m322 17 2 1v314h-17c1-4 1-4 2.707-5.273l2.106-1.102c4.404-2.565 7.201-5.506 8.776-10.489.473-2.46.542-4.745.55-7.25l.016-3.15.003-3.454.015-3.674c.013-3.365.021-6.731.028-10.097.008-3.63.021-7.258.034-10.887.022-6.289.04-12.577.056-18.865.023-9.092.05-18.183.08-27.275.048-14.75.091-29.5.132-44.25.039-14.33.08-28.66.125-42.989l.008-2.676.041-13.29c.114-36.76.22-73.52.323-110.279Z"/>
        <path fill="#888A8C" d="M201 47c3.67 1.322 6.334 3.248 8.938 6.188 1.518 4.019 1.735 7.57 1.062 11.812-2.193 4.385-4.387 7.233-9 9-4.63.71-8.992 1.102-13.2-1.207-4.216-3.492-6.56-6.635-7.175-12.168.577-5.58 2.936-8.353 7.063-12 4.3-2.11 7.609-2.435 12.312-1.625Z"/>
        <path fill="#D02935" d="M43 229c14.4 0 14.4 0 21 5.5 2.698 3.658 2.644 7.466 2.41 11.879-.71 4.543-2.41 7.12-6.07 9.867C54.176 259.904 50.859 259 43 259v-30Z"/>
        <path fill="#FBEFF0" d="M280 158h4v34h-4l-1-3-1.195 1.469c-2.91 2.47-5.674 2.057-9.356 1.96-3.693-.647-5.276-2.485-7.449-5.429-1.976-3.951-1.576-8.704-1-13 2.438-3.125 2.438-3.125 5-5l1-1a70.068 70.068 0 0 1 4.875-.188l2.68-.042C276 168 276 168 279 170l1-12Z"/>
        <path fill="#FCF0F1" d="M173 222h8v36h23v8h-31v-44Z"/>
        <path fill="#FCF0F0" d="M165 168c3.407 2.148 5.778 4.113 7 8 .485 5.234-.173 8.557-3 13-3.918 3.642-7.217 3.503-12.367 3.352-3.611-.483-5.303-1.571-7.633-4.352-2.25-3.965-2.474-7.497-2-12 1.822-3.645 3.422-5.593 6.75-7.938 4.104-1.341 7.13-1.32 11.25-.062Z"/>
        <path fill="#FBECEC" d="M50 159h4a6695.97 6695.97 0 0 1 5.981 13.135c.678 1.49 1.357 2.98 2.038 4.47a3080.36 3080.36 0 0 1 2.919 6.418l.927 2.024C68 189.772 68 189.772 68 192c-2.375-.25-2.375-.25-5-1-1.794-2.563-2-3.831-2-7-2.922-.021-5.83.007-8.75.063l-2.5-.034c-2.44.07-4.43.2-6.75.971-2.033 2.24-2.823 4.151-4 7l-4-1c1.555-3.65 3.12-7.294 4.688-10.938l1.318-3.095C43.68 170.766 46.58 164.825 50 159Z"/>
        <path fill="#C82C3C" d="M278.383 26.168c4.906 2.6 9.014 5.607 12.617 9.832l-1 2-1.433-1.207c-6.827-5.469-13.515-8.444-22.38-8.074-7.786 1-14.937 5.106-19.765 11.308C241.658 47.38 241.138 54.3 242 63c2.391 8.09 7.575 13.988 14.906 18.059C262.364 83.396 268.13 83.687 274 84v1c-10.921.518-18.86.132-27.75-6.687-5.612-5.144-9.739-13.004-10.469-20.586-.327-8.879 1.908-15.93 7.477-22.871 9.254-9.856 22.235-13.139 35.125-8.688Z"/>
        <path fill="#C62536" d="M271.14 34.414c.696.07 1.392.14 2.11.21L277 35c-1.37 2.894-2.934 5.464-4.786 8.074l-1.607 2.272-1.67 2.341-1.682 2.377c-4.104 5.784-4.104 5.784-5.256 6.936l18 1v18h-6V63h-21c0-6.748 0-6.748 2.485-9.875l1.586-2.047L258.75 49a2587.29 2587.29 0 0 0 3.234-4.125l1.577-1.978c1.319-1.74 2.442-3.503 3.563-5.374C269 35 269 35 271.14 34.414Z"/>
        <path fill="#FAE5E6" d="M249 168c3.063 1.938 3.063 1.938 5 5 .676 3.064.859 5.84 1 9l-18 1c1.5 4 1.5 4 4 5 4.555.258 7.878-.001 12-2v4c-4.46 2.973-8.77 2.62-14 2-3.252-1.792-4.503-3.124-6.313-6.313-1.284-5.02-1.396-8.392 1.125-13 4.37-5.368 8.644-5.668 15.188-4.687Z"/>
        <path fill="#87888B" d="M52.457 38.914C54.375 40 54.375 40 57 42l-2 4-1.813-.938C47.907 42.498 42.772 42.375 37 43c-3.457 2.046-4.779 3.668-7 7-.775 5.85-.482 11.077 3 16 3.813 3.467 7.702 3.433 12.633 3.309 2.987-.39 4.897-1.638 7.367-3.31 2.312.313 2.312.313 4 1-.957 2.777-1.953 3.966-4.313 5.75-6.175 2.094-13.041 2.818-19.167.185C28.756 69.654 25.623 65.563 24 60c-.876-5.294-.466-9.786 2.633-14.36 6.728-8.073 15.638-10.515 25.824-6.726Z"/>
        <path fill="#87888B" d="M86.035 47.723c3.927 2.06 6.4 4.135 7.965 8.277.698 4.711.455 8.054-1.625 12.375-3.944 4.36-7.527 5.793-13.313 6.188-4.89-.126-7.339-1.698-10.785-5.055-3.013-3.557-2.664-7.253-2.629-11.738.553-4.354 2.097-5.885 5.352-8.77 4.701-2.79 9.87-3.111 15.035-1.277ZM71.937 53c-2.017 3.124-2.686 5.259-2.41 8.996.927 3.93 2.298 5.413 5.473 8.004 4.49 1.056 7.9.55 12-1.5 2.698-3.373 3.446-6.199 3-10.5-2.212-4.274-2.212-4.274-6-7-4.738-.651-7.995-.656-12.063 2Z"/>
        <path fill="#FCFCFC" d="M200 51c4.57 2.139 4.57 2.139 6 5 .647 4.704.638 7.991-1.938 12.063-4.12 2.607-7.311 2.976-12.062 1.937-3.063-1.938-3.063-1.938-5-5-.691-3.16-.697-5.84 0-9 3.428-5.249 7.116-6.117 13-5Z"/>
        <path fill="#FCF2F3" d="M120 158h4l1 12 2-2c2.242-.371 2.242-.371 4.875-.438l2.617-.12c2.508.558 2.508.558 4.813 2.472 2.391 4.353 2.134 8.022 1.945 12.899l-.055 2.677A471.53 471.53 0 0 1 141 192h-4l-.148-3.867-.227-5.008c-.03-.842-.062-1.684-.094-2.55l-.117-2.442-.095-2.254c-.173-2.12-.173-2.12-2.319-3.879-4.105-.497-4.105-.497-7.66 1.269-1.6 2.066-1.754 3.155-1.852 5.743l-.107 2.295-.069 2.38-.103 2.417A579.45 579.45 0 0 0 124 192h-4v-34Z"/>
        <path fill="#828386" d="M120 47c3.586 1.637 4.793 2.69 7 6 .227 2.268.227 2.268.195 4.887l-.02 2.842-.05 2.959-.027 2.994c-.024 2.44-.057 4.879-.098 7.318h-4l-.044-1.697a840.696 840.696 0 0 0-.269-7.615l-.068-2.67-.107-2.569-.08-2.364c-.532-2.568-1.394-3.48-3.432-5.085-1.94-.545-1.94-.545-4-.5l-2.063-.094c-2.133.466-2.133.466-3.644 2.574-1.706 3.985-1.855 7.539-1.98 11.833l-.104 2.388A556.014 556.014 0 0 0 107 74h-4V48h4l1 2 1.5-1.5c3.451-2.07 6.618-2.079 10.5-1.5Z"/>
        <path fill="#D12531" d="M260 230c2.605-.08 5.207-.14 7.813-.188l2.236-.076c5.432-.073 5.432-.073 7.94 1.557 1.72 2.904 1.362 5.435 1.011 8.707-1.831 2.616-2.91 2.97-6 4-4.337.135-8.66.043-13 0v-14Z"/>
        <path fill="#E0282E" d="M158.938 170.375c4.253.868 6.182 2.402 9.063 5.625.589 4.197.478 7.478-2 11-3.721 2.48-5.598 2.463-10 2-2.365-1.867-3.66-3.32-5-6-.496-4.374-.493-6.32 2.124-9.938C156 171 156 171 158.938 170.375Z"/>
        <path fill="#E0262C" d="M275 171c2.303 1.867 3.678 3.356 5 6 .253 3.88.305 6.774-2 10-3.21 2.292-6.137 2.563-10 2-2.647-2.16-3.776-3.822-4.418-7.195-.252-4.13-.154-6.115 2.543-9.368 3.361-1.68 5.17-2.068 8.875-1.437Z"/>
        <path fill="#FBEEEF" d="M73 168h4l.148 3.867.227 5.008c.03.842.062 1.684.094 2.55l.117 2.442.095 2.254c.173 2.12.173 2.12 2.319 3.879 4.105.497 4.105.497 7.66-1.269 1.6-2.066 1.754-3.155 1.852-5.743l.107-2.295.069-2.38.103-2.417c.082-1.965.147-3.93.209-5.896h4v24h-4l-1-2-2 2c-2.242.371-2.242.371-4.875.438l-2.617.12C77 192 77 192 74.695 190.087c-2.391-4.353-2.134-8.022-1.945-12.899l.055-2.677c.047-2.17.118-4.34.195-6.51Z"/>
        <path fill="#FDF9F9" d="M208 168h20c-1.069 5.345-2.802 7.42-6.438 11.125-4.048 4.211-4.048 4.211-7.562 8.875l14 1v3h-20c1.125-5.625 1.125-5.625 3.941-8.77l1.768-2.001 1.853-2.042 1.866-2.1A837.083 837.083 0 0 1 222 172l-14-1v-3Z"/>
        <path fill="#828386" d="M140 40h4v8h9v3h-9c.14 2.813.287 5.625.438 8.438l.119 2.431c-.152 3.883-.152 3.883 1.443 7.131 2.328.368 4.662.702 7 1v3c-3.092 1.546-5.594 1.294-9 1-2.21-1.41-2.21-1.41-4-4-.489-3.264-.376-6.46-.25-9.75l.055-2.691c.047-2.188.112-4.373.195-6.559h-4v-3h4v-8Z"/>
        <path fill="#8D8E90" d="M220 37h5v37h-5V37Z"/>
        <path fill="#838487" d="M177 47v5l-3.313.688c-3.7.954-3.7.954-5.375 3.406-1.613 3.573-1.87 6.862-2 10.718l-.103 2.1A432.405 432.405 0 0 0 166 74h-4V48h4l1 4 1.875-1.938C171.953 47.075 172.54 47 177 47Z"/>
        <path fill="#FEFBFB" d="M103 161h3v7h8v3h-8c.14 2.459.287 4.917.438 7.375l.119 2.117c.186 3.882.186 3.882 1.443 7.508h6v4c-1.457.081-2.916.14-4.375.188l-2.46.105L105 192c-2.067-3.1-2.245-3.73-2.195-7.23l.02-2.432.05-2.525.027-2.561A931 931 0 0 1 103 171h-3v-3h3v-7Z"/>
        <path fill="#FDF9F9" d="M178 168h4l1 3 1.75-1.5C187 168 187 168 191 168v4l-2.313.75c-3.102 1.443-3.984 2.31-5.687 5.25-.578 3.499-.578 3.499-.688 7.25l-.199 3.828L182 192h-4v-24Z"/>
        <path fill="#D12D39" d="M143 232c2.35 2.896 3.835 5.654 5.188 9.125l1.042 2.633C150 246 150 246 150 248h-13c.805-4.828 1.398-7.268 3.563-11.375l1.378-2.648L143 232Z"/>
        <path fill="#E22D31" d="M51 165c2.529 2.26 3.839 4.399 5.188 7.5l1.042 2.344C58 177 58 177 58 180H45c1.672-5.254 3.377-10.129 6-15Z"/>
        <path fill="#FCF1F2" d="M197 168h4v24h-4v-24Z"/>
        <path fill="#000000" d="M0 317a318.931 318.931 0 0 1 5.125 7c3.15 3.82 7.329 5.316 11.875 7v1H0v-15Z"/>
        <path fill="#000000" d="M323 317h1v15h-17l4-2c5.6-3.383 9.326-6.985 12-13Z"/>
        <path fill="#E22A2F" d="M243.375 170.625c3.625.375 3.625.375 6.063 2.188C251 175 251 175 251 178h-14c1.364-6.818 1.364-6.818 6.375-7.375Z"/>
        <path fill="#000000" d="M309 0h15v15c-1.03-1.544-2.055-3.092-3.008-4.684C317.828 5.348 314.428 3.168 309 1V0Z"/>
        <path fill="#000000" d="M0 0h15c-1.544 1.03-3.092 2.055-4.684 3.008C5.348 6.172 3.168 9.572 1 15H0V0Z"/>
        <path fill="#908E91" d="M304 0c6.877.246 11.158 2.02 16 7 1.744 2.533 3.193 5.02 4 8l-1 3c-2-1-2-1-3.313-4.563-2.602-5.609-7.82-7.982-12.984-10.87L304 1V0Z"/>
        <path fill="#908E91" d="m20 0-1 3c-1.99.694-3.993 1.356-6 2-5.054 2.628-6.964 5.176-9.043 10.293C3 17 3 17 0 18c.298-5.963 2.908-9.855 7-14 4.072-2.847 7.94-4.633 13-4Z"/>
        <path fill="#867A7E" d="M321 313h3c-.608 6.387-3.215 10.577-7.938 14.813-2.904 2.074-4.562 2.878-8.062 3.187v-3c1.61-1.176 1.61-1.176 3.75-2.313 4.65-2.731 7.349-5.833 9-11.062L321 313Z"/>
        <path fill="#877B7F" d="M0 313h3l1.125 3.688c2.02 5.406 5.213 7.841 10.25 10.625L16 328v3c-6.761-1.649-11.309-5.272-14.938-11.125C0 317 0 317 0 313Z"/>
        <path fill="#E68E94" d="M295 30c2.125.375 2.125.375 4 1l1 4c-2.076.553-3.844 1-6 1-.625-1.875-.625-1.875-1-4l2-2Z"/>
        <path fill="#D34E59" d="M255 81c1.86.44 3.72.893 5.559 1.418 4.41 1.051 8.927 1.267 13.441 1.582v1c-2.375.054-4.75.094-7.125.125-.665.017-1.33.034-2.016.05-4.354.043-7.815-.575-11.859-2.175l2-2Z"/>
        <path fill="#CD3E4B" d="M283 30c3.366 1.443 5.51 3.333 8 6l-1 2-8-6 1-2Z"/>
    </g>
</svg>
